<mxfile host="Electron" modified="2023-11-09T17:24:39.681Z" agent="Mozilla/5.0 (Windows NT 10.0; Win64; x64) AppleWebKit/537.36 (KHTML, like Gecko) draw.io/22.0.3 Chrome/114.0.5735.289 Electron/25.8.4 Safari/537.36" etag="Vju4H9RBrhamC8gzQtdn" version="22.0.3" type="device">
  <diagram name="Trang-1" id="dHGBXceDJHBxk1JOkldl">
    <mxGraphModel dx="783" dy="512" grid="1" gridSize="10" guides="1" tooltips="1" connect="1" arrows="1" fold="1" page="1" pageScale="1" pageWidth="1169" pageHeight="1654" math="0" shadow="0">
      <root>
        <mxCell id="0" />
        <mxCell id="1" parent="0" />
        <mxCell id="PvBr9R1_aHnzcgSta2gU-3" value="" style="edgeStyle=orthogonalEdgeStyle;rounded=0;orthogonalLoop=1;jettySize=auto;html=1;" parent="1" source="PvBr9R1_aHnzcgSta2gU-1" target="PvBr9R1_aHnzcgSta2gU-2" edge="1">
          <mxGeometry relative="1" as="geometry" />
        </mxCell>
        <mxCell id="PvBr9R1_aHnzcgSta2gU-1" value="start" style="ellipse;whiteSpace=wrap;html=1;" parent="1" vertex="1">
          <mxGeometry x="320" y="60" width="120" height="80" as="geometry" />
        </mxCell>
        <mxCell id="PvBr9R1_aHnzcgSta2gU-6" value="" style="edgeStyle=orthogonalEdgeStyle;rounded=0;orthogonalLoop=1;jettySize=auto;html=1;" parent="1" source="PvBr9R1_aHnzcgSta2gU-2" target="PvBr9R1_aHnzcgSta2gU-5" edge="1">
          <mxGeometry relative="1" as="geometry" />
        </mxCell>
        <mxCell id="PvBr9R1_aHnzcgSta2gU-2" value="a, b ,c" style="shape=parallelogram;perimeter=parallelogramPerimeter;whiteSpace=wrap;html=1;fixedSize=1;" parent="1" vertex="1">
          <mxGeometry x="295" y="200" width="170" height="60" as="geometry" />
        </mxCell>
        <mxCell id="PvBr9R1_aHnzcgSta2gU-8" value="" style="edgeStyle=orthogonalEdgeStyle;rounded=0;orthogonalLoop=1;jettySize=auto;html=1;" parent="1" source="PvBr9R1_aHnzcgSta2gU-5" target="PvBr9R1_aHnzcgSta2gU-7" edge="1">
          <mxGeometry relative="1" as="geometry" />
        </mxCell>
        <mxCell id="PvBr9R1_aHnzcgSta2gU-5" value="min = a" style="rounded=0;whiteSpace=wrap;html=1;" parent="1" vertex="1">
          <mxGeometry x="320" y="310" width="120" height="60" as="geometry" />
        </mxCell>
        <mxCell id="PvBr9R1_aHnzcgSta2gU-10" value="" style="edgeStyle=orthogonalEdgeStyle;rounded=0;orthogonalLoop=1;jettySize=auto;html=1;" parent="1" source="PvBr9R1_aHnzcgSta2gU-7" target="PvBr9R1_aHnzcgSta2gU-9" edge="1">
          <mxGeometry relative="1" as="geometry" />
        </mxCell>
        <mxCell id="PvBr9R1_aHnzcgSta2gU-12" value="" style="edgeStyle=orthogonalEdgeStyle;rounded=0;orthogonalLoop=1;jettySize=auto;html=1;" parent="1" source="PvBr9R1_aHnzcgSta2gU-7" edge="1">
          <mxGeometry relative="1" as="geometry">
            <mxPoint x="380" y="620" as="targetPoint" />
          </mxGeometry>
        </mxCell>
        <mxCell id="PvBr9R1_aHnzcgSta2gU-7" value="min&amp;gt;b" style="rhombus;whiteSpace=wrap;html=1;" parent="1" vertex="1">
          <mxGeometry x="340" y="450" width="80" height="80" as="geometry" />
        </mxCell>
        <mxCell id="BXcP_AOacWN32BmaQaGL-12" style="edgeStyle=orthogonalEdgeStyle;rounded=0;orthogonalLoop=1;jettySize=auto;html=1;exitX=1;exitY=0.5;exitDx=0;exitDy=0;entryX=1;entryY=0.5;entryDx=0;entryDy=0;" edge="1" parent="1" source="PvBr9R1_aHnzcgSta2gU-9" target="BXcP_AOacWN32BmaQaGL-2">
          <mxGeometry relative="1" as="geometry">
            <Array as="points">
              <mxPoint x="720" y="490" />
              <mxPoint x="720" y="1020" />
            </Array>
          </mxGeometry>
        </mxCell>
        <mxCell id="PvBr9R1_aHnzcgSta2gU-9" value="đổi chỗ min và b" style="rounded=1;whiteSpace=wrap;html=1;" parent="1" vertex="1">
          <mxGeometry x="520" y="460" width="120" height="60" as="geometry" />
        </mxCell>
        <mxCell id="PvBr9R1_aHnzcgSta2gU-15" value="" style="edgeStyle=orthogonalEdgeStyle;rounded=0;orthogonalLoop=1;jettySize=auto;html=1;" parent="1" source="PvBr9R1_aHnzcgSta2gU-13" edge="1">
          <mxGeometry relative="1" as="geometry">
            <mxPoint x="520" y="660" as="targetPoint" />
          </mxGeometry>
        </mxCell>
        <mxCell id="PvBr9R1_aHnzcgSta2gU-19" value="" style="edgeStyle=orthogonalEdgeStyle;rounded=0;orthogonalLoop=1;jettySize=auto;html=1;" parent="1" source="PvBr9R1_aHnzcgSta2gU-13" edge="1">
          <mxGeometry relative="1" as="geometry">
            <mxPoint x="380" y="787" as="targetPoint" />
          </mxGeometry>
        </mxCell>
        <mxCell id="PvBr9R1_aHnzcgSta2gU-13" value="min&amp;gt;c" style="rhombus;whiteSpace=wrap;html=1;" parent="1" vertex="1">
          <mxGeometry x="320" y="620" width="120" height="80" as="geometry" />
        </mxCell>
        <mxCell id="BXcP_AOacWN32BmaQaGL-13" style="edgeStyle=orthogonalEdgeStyle;rounded=0;orthogonalLoop=1;jettySize=auto;html=1;exitX=1;exitY=0.5;exitDx=0;exitDy=0;" edge="1" parent="1" source="PvBr9R1_aHnzcgSta2gU-17">
          <mxGeometry relative="1" as="geometry">
            <mxPoint x="730" y="669.9047619047619" as="targetPoint" />
          </mxGeometry>
        </mxCell>
        <mxCell id="PvBr9R1_aHnzcgSta2gU-17" value="đổi chỗ min và c" style="rounded=0;whiteSpace=wrap;html=1;" parent="1" vertex="1">
          <mxGeometry x="520" y="640" width="120" height="60" as="geometry" />
        </mxCell>
        <mxCell id="PvBr9R1_aHnzcgSta2gU-21" value="" style="edgeStyle=orthogonalEdgeStyle;rounded=0;orthogonalLoop=1;jettySize=auto;html=1;" parent="1" edge="1">
          <mxGeometry relative="1" as="geometry">
            <mxPoint x="379.52" y="1050" as="sourcePoint" />
            <mxPoint x="379.52" y="1140" as="targetPoint" />
          </mxGeometry>
        </mxCell>
        <mxCell id="BXcP_AOacWN32BmaQaGL-2" value="các số giảm dần&amp;nbsp;" style="shape=parallelogram;perimeter=parallelogramPerimeter;whiteSpace=wrap;html=1;fixedSize=1;" vertex="1" parent="1">
          <mxGeometry x="320" y="990" width="120" height="60" as="geometry" />
        </mxCell>
        <mxCell id="BXcP_AOacWN32BmaQaGL-3" value="end" style="ellipse;whiteSpace=wrap;html=1;" vertex="1" parent="1">
          <mxGeometry x="320" y="1140" width="120" height="80" as="geometry" />
        </mxCell>
        <mxCell id="BXcP_AOacWN32BmaQaGL-8" value="" style="edgeStyle=orthogonalEdgeStyle;rounded=0;orthogonalLoop=1;jettySize=auto;html=1;" edge="1" parent="1" source="BXcP_AOacWN32BmaQaGL-4" target="BXcP_AOacWN32BmaQaGL-2">
          <mxGeometry relative="1" as="geometry" />
        </mxCell>
        <mxCell id="BXcP_AOacWN32BmaQaGL-10" value="" style="edgeStyle=orthogonalEdgeStyle;rounded=0;orthogonalLoop=1;jettySize=auto;html=1;" edge="1" parent="1" source="BXcP_AOacWN32BmaQaGL-4" target="BXcP_AOacWN32BmaQaGL-9">
          <mxGeometry relative="1" as="geometry" />
        </mxCell>
        <mxCell id="BXcP_AOacWN32BmaQaGL-4" value="b &amp;gt; c&amp;nbsp;" style="rhombus;whiteSpace=wrap;html=1;" vertex="1" parent="1">
          <mxGeometry x="340" y="787" width="80" height="80" as="geometry" />
        </mxCell>
        <mxCell id="BXcP_AOacWN32BmaQaGL-14" style="edgeStyle=orthogonalEdgeStyle;rounded=0;orthogonalLoop=1;jettySize=auto;html=1;exitX=1;exitY=0.5;exitDx=0;exitDy=0;" edge="1" parent="1" source="BXcP_AOacWN32BmaQaGL-9">
          <mxGeometry relative="1" as="geometry">
            <mxPoint x="720" y="827.047619047619" as="targetPoint" />
          </mxGeometry>
        </mxCell>
        <mxCell id="BXcP_AOacWN32BmaQaGL-9" value="đổi chỗ b và c&amp;nbsp; &amp;nbsp;" style="whiteSpace=wrap;html=1;" vertex="1" parent="1">
          <mxGeometry x="520" y="797" width="120" height="60" as="geometry" />
        </mxCell>
      </root>
    </mxGraphModel>
  </diagram>
</mxfile>
